<?xml version="1.0" encoding="UTF-8"?>
<svg version="1.1" xmlns="http://www.w3.org/2000/svg" width="512" height="512">
<path d="M0 0 C9.57 0 19.14 0 29 0 C24.38068873 10.70729538 19.55463308 21.2781767 14.51950073 31.79525757 C8.34797618 44.69501593 2.27400264 57.63247604 -3.5625 70.6875 C-3.83789612 71.30241302 -4.11329224 71.91732605 -4.39703369 72.5508728 C-7.42218635 79.18694933 -7.42218635 79.18694933 -10 86 C-8.74445312 86.19335938 -7.48890625 86.38671875 -6.1953125 86.5859375 C-4.50519075 86.84884533 -2.81508758 87.11187259 -1.125 87.375 C-0.30257813 87.50132813 0.51984375 87.62765625 1.3671875 87.7578125 C2.1921875 87.88671875 3.0171875 88.015625 3.8671875 88.1484375 C4.71337646 88.27532959 5.55956543 88.40222168 6.43139648 88.53295898 C9 89 9 89 11.52368164 89.73461914 C16.41646786 91.10059154 19.27074814 91.33261466 23.82421875 88.88671875 C25.46400533 87.84928576 27.08476365 86.78130229 28.6875 85.6875 C30.43617574 84.5676737 32.18487387 83.44788237 33.93359375 82.328125 C34.78808105 81.76544922 35.64256836 81.20277344 36.52294922 80.62304688 C40.04992247 78.31205553 43.64060314 76.11655629 47.25 73.9375 C48.36890625 73.24527344 49.4878125 72.55304688 50.640625 71.83984375 C56.76096106 68.48789225 62.91204294 65.7387001 70 67 C74.38043493 68.60432446 77.81213993 70.57672872 81 74 C86.57706416 66.90528342 91.95840431 59.71261049 97.125 52.3125 C112.67231801 30.111928 112.67231801 30.111928 122 28 C136.0945512 26.36225285 148.03561541 33.92106155 158.87109375 42.19140625 C160.52177935 43.52323728 162.16054853 44.87012059 163.78125 46.23828125 C164.5134375 46.81964844 165.245625 47.40101562 166 48 C166.78117188 48.62261719 167.56234375 49.24523438 168.3671875 49.88671875 C171.0337033 51.33370001 171.0337033 51.33370001 174.1015625 50.15625 C175.26429688 49.6096875 176.42703125 49.063125 177.625 48.5 C210.02834637 34.27168497 245.44954162 34.283842 279.25 42.9375 C280.19012939 43.17807129 281.13025879 43.41864258 282.09887695 43.66650391 C287.35768265 45.08434453 292.20840871 46.83290423 297.11010742 49.21435547 C300.24045498 50.51566776 301.87464045 50.26344322 305 49 C306.88123727 47.46714001 308.63457644 45.82181993 310.4140625 44.171875 C320.84447314 35.41159054 334.55579793 26.80574621 348.6328125 27.5703125 C358.28345889 29.32208 363.50618943 36.48847004 369 44 C369.50611816 44.68916504 370.01223633 45.37833008 370.53369141 46.08837891 C373.8842193 50.66633777 377.19456816 55.27209413 380.49023438 59.88964844 C382.58174989 62.81317044 384.6955591 65.71983643 386.8125 68.625 C387.43769531 69.48351562 388.06289063 70.34203125 388.70703125 71.2265625 C389.13371094 71.81179687 389.56039063 72.39703125 390 73 C391.9860981 72.02452704 393.94124678 71.03382013 395.859375 69.9296875 C401.55652067 66.75152773 406.11672273 65.92789135 412.43359375 67.671875 C421.58212858 71.04580274 429.66030753 76.54555441 437.8515625 81.74609375 C439.13981934 82.54430542 439.13981934 82.54430542 440.45410156 83.35864258 C443 85 443 85 445.38183594 86.8190918 C450.41606045 90.43956053 453.60722069 91.38811482 459.8125 90.52734375 C462.2165993 90.03625446 464.61285781 89.50531538 467 88.9375 C468.83884766 88.55174805 468.83884766 88.55174805 470.71484375 88.15820312 C476.51337363 87.05093423 476.51337363 87.05093423 482 85 C479.67029722 79.87334295 477.33664799 74.74849532 475 69.625 C474.64463165 68.84579193 474.28926331 68.06658386 473.92312622 67.26376343 C467.88459173 54.03372207 461.7374229 40.85776907 455.49414062 27.72314453 C451.14646781 18.55652851 447.03048509 9.31109489 443 0 C452.57 0 462.14 0 472 0 C474.20632533 4.67689661 476.41202761 9.35407728 478.61621094 14.03198242 C479.36455442 15.61971463 480.11324519 17.2072832 480.86230469 18.79467773 C481.94560013 21.09054187 483.02760042 23.38701269 484.109375 25.68359375 C484.43871033 26.38085068 484.76804565 27.0781076 485.10736084 27.79649353 C485.75493522 29.17251267 486.39344211 30.55283499 487.02288818 31.9372406 C487.97332309 34.0100231 487.97332309 34.0100231 489.1182251 35.96620178 C492.97985317 43.22594905 492.50751137 50.75880837 492.390625 58.75390625 C492.38315105 60.26561225 492.37746358 61.77732803 492.37347412 63.28904724 C492.35830826 67.23970988 492.31910689 71.18977056 492.2746582 75.14019775 C492.23350819 79.18257508 492.21542129 83.22505106 492.1953125 87.26757812 C492.15260182 95.17865957 492.084463 103.08925459 492 111 C491.08186523 111.176521 490.16373047 111.35304199 489.21777344 111.53491211 C485.8033774 112.19190897 482.38917483 112.84989391 478.97509766 113.50854492 C477.49893679 113.79311971 476.02270045 114.07730331 474.54638672 114.36108398 C472.42134845 114.76963511 470.2965878 115.17960379 468.171875 115.58984375 C466.8940918 115.83597412 465.61630859 116.08210449 464.29980469 116.33569336 C461.84089911 116.83071275 459.42682585 117.37452212 457 118 C444.26238731 120.02877299 432.64339772 110.12381908 422.375 103.6875 C420.07127902 102.25234838 417.76600557 100.81970718 415.4609375 99.38671875 C414.45853027 98.75983154 413.45612305 98.13294434 412.42333984 97.48706055 C410.10620159 96.01700374 410.10620159 96.01700374 408 95 C407.7313916 95.87454834 407.4627832 96.74909668 407.18603516 97.65014648 C406.04596163 100.87018535 404.69599407 103.62539133 403.0234375 106.59765625 C402.43820312 107.64091064 401.85296875 108.68416504 401.25 109.7590332 C400.63125 110.84917725 400.0125 111.93932129 399.375 113.0625 C398.74851562 114.17906982 398.12203125 115.29563965 397.4765625 116.44604492 C393.57973474 123.35254815 389.54004343 130.09973491 385.0625 136.64453125 C383.71952254 138.92928825 383.71952254 138.92928825 384.66015625 141.14453125 C386.32985322 143.45679382 388.18450505 145.58612355 390.0625 147.73046875 C397.33769752 156.25242391 404.02000833 165.29756539 410.75 174.25 C411.67026978 175.4723938 411.67026978 175.4723938 412.60913086 176.71948242 C432.97783774 203.92439368 449.5978024 232.98272356 465.04150391 263.17578125 C468.02428246 269.00484815 471.03047477 274.82182217 474.03793335 280.63818359 C474.96449728 282.43129422 475.88914732 284.22539343 476.8137207 286.01953125 C480.34923464 292.8682979 480.34923464 292.8682979 483.9921875 299.66015625 C484.31759521 300.25646851 484.64300293 300.85278076 484.97827148 301.46716309 C485.88643476 303.12550297 486.80046676 304.780625 487.71484375 306.43554688 C489 309 489 309 489 311 C489.99 311 490.98 311 492 311 C492 317.6 492 324.2 492 331 C488.54273438 331.11214844 488.54273438 331.11214844 485.015625 331.2265625 C455.73943248 332.30431939 427.09198561 336.06892101 398.19140625 340.7265625 C397.32490952 340.86570068 396.45841278 341.00483887 395.56565857 341.14819336 C391.48333264 341.80552746 387.40375207 342.47462339 383.32788086 343.17089844 C359.60255016 347.14919669 359.60255016 347.14919669 351 342 C347.70588827 339.60037292 344.50484588 337.10638196 341.3125 334.57421875 C330.05229675 325.51611327 330.05229675 325.51611327 316.48217773 322.08422852 C312.91182264 323.40147077 312.31855205 325.27848963 310.66015625 328.65234375 C310.07169922 329.82216797 309.48324219 330.99199219 308.87695312 332.19726562 C308.27132206 333.44361552 307.66650846 334.69036295 307.0625 335.9375 C305.87239264 338.34570589 304.67286155 340.74915795 303.47265625 343.15234375 C302.89193359 344.31886475 302.31121094 345.48538574 301.71289062 346.68725586 C299.73630845 350.50998156 297.56485 354.16986803 295.3112793 357.83374023 C292.25679193 362.87981478 289.7807309 368.23997035 287.19970703 373.53857422 C286.36292192 375.25539707 285.52246332 376.97043222 284.67919922 378.68408203 C277.93938113 392.39143062 271.61572685 406.23492523 265.62817383 420.28369141 C261.93151531 428.94538255 258.02797761 437.48892297 254 446 C254.78044678 446.06356689 255.56089355 446.12713379 256.36499023 446.19262695 C281.61318523 448.36033799 306.47234609 452.42130981 331.40779686 456.82839966 C334.18303369 457.31814513 336.95907638 457.80323829 339.7351532 458.28819656 C341.64081879 458.62368674 343.54499495 458.96760394 345.44909668 459.31185913 C359.03445728 462.54830979 359.03445728 462.54830979 372.18344116 460.91744995 C373.90816676 459.47659808 375.19461639 457.96911115 376.5625 456.1875 C377.62763729 454.97734093 378.69941171 453.77299518 379.77734375 452.57421875 C380.3069873 451.97013184 380.83663086 451.36604492 381.38232422 450.74365234 C389.61071002 441.87448069 401.47984483 433.82961352 413.734375 432.76171875 C422.2915359 432.55111505 427.80045301 433.89530197 434.19921875 439.65234375 C439.80180869 445.38248438 442.97088795 452.90044361 446.5 460 C447.28217862 461.549833 448.06523096 463.09922532 448.84912109 464.64819336 C451.25637137 469.42050841 453.63211182 474.20805604 456 479 C456.38160278 479.77112122 456.76320557 480.54224243 457.15637207 481.33673096 C459.66216575 486.40411316 462.15113538 491.47945758 464.625 496.5625 C465.11625366 497.56978149 465.11625366 497.56978149 465.61743164 498.59741211 C466.53360294 500.48064021 467.44380356 502.36661141 468.3515625 504.25390625 C469.12234131 505.85214233 469.12234131 505.85214233 469.90869141 507.48266602 C471 510 471 510 471 512 C461.76 512 452.52 512 443 512 C437.00103757 500.7845485 431.23943057 489.52614061 425.84448242 478.00756836 C423.39464581 472.80229744 420.81491392 467.75009985 417.91137695 462.78173828 C417 461 417 461 417 459 C409.24852836 461.15318657 404.73756776 465.51906466 399 471 C396.99296909 472.78647807 394.96553458 474.54667028 392.93359375 476.3046875 C391.59573423 477.47767948 390.27639942 478.67201441 388.97265625 479.8828125 C381.90255211 486.36939557 375.50143057 488.61161899 366 489 C362.27625922 488.81864469 358.61717505 488.3598946 354.92578125 487.84765625 C353.3689135 487.64234032 353.3689135 487.64234032 351.78059387 487.43287659 C342.32314201 486.13929874 332.95965295 484.40845884 323.58251953 482.63647461 C298.69584372 477.94322778 274.38103878 475.34762868 249.06738281 475.02746582 C247.21146039 475.00280932 245.35570131 474.96650843 243.5 474.92871094 C237.32639776 474.80340909 231.17230794 474.83294632 225 475 C223.85370117 475.0299707 222.70740234 475.05994141 221.52636719 475.09082031 C203.15569599 475.59808788 185.09878917 476.22862998 166.9765625 479.46875 C165.57773379 479.71239869 164.17875322 479.95517692 162.77963257 480.19714355 C157.65603248 481.0849108 152.53482571 481.98612332 147.41412354 482.89044189 C143.06566563 483.6582133 138.71608128 484.41886908 134.36472702 485.1700592 C132.36326734 485.51833746 130.36355171 485.87659309 128.36392212 486.23522949 C100.64954195 491.0258031 100.64954195 491.0258031 88 484.4375 C84.29952846 481.43086687 81.06026952 478.07608338 77.7265625 474.671875 C67.69580658 464.6168869 67.69580658 464.6168869 55 459 C54.77183594 459.79535156 54.54367188 460.59070313 54.30859375 461.41015625 C52.63534781 466.00034436 50.37942705 470.14433502 48.0625 474.4375 C43.29533391 483.38382577 38.83874838 492.44771045 34.52954102 501.62280273 C34.09569092 502.54391846 33.66184082 503.46503418 33.21484375 504.4140625 C32.64431274 505.63536865 32.64431274 505.63536865 32.06225586 506.88134766 C31 509 31 509 29 512 C26.20263672 512.34057617 26.20263672 512.34057617 22.6796875 512.29296875 C20.79443359 512.2784668 20.79443359 512.2784668 18.87109375 512.26367188 C17.55238281 512.23853516 16.23367187 512.21339844 14.875 512.1875 C13.53517097 512.17245483 12.19532596 512.15876613 10.85546875 512.14648438 C7.56991158 512.11102872 4.28515418 512.06160849 1 512 C2.72547155 506.07841056 5.45491412 500.70444095 8.1640625 495.1875 C8.67496429 494.14158691 9.18586609 493.09567383 9.71224976 492.01806641 C10.79471842 489.80490039 11.87912495 487.59268128 12.96533203 485.38134766 C14.60419519 482.04238696 16.23414083 478.69918194 17.86328125 475.35546875 C35.03688685 440.23248054 35.03688685 440.23248054 45.1875 434.0625 C55.63437398 431.1510761 64.49559647 433.29159826 74.0078125 437.9921875 C78.51850221 440.57781298 82.45937873 443.92399244 86.4375 447.25 C87.0039624 447.72284424 87.5704248 448.19568848 88.15405273 448.68286133 C91.6172247 451.63864182 94.50764479 454.75166542 97.4375 458.25 C100.02355976 460.86950872 101.28430394 461.94510687 105.00584412 462.23054504 C106.12338577 462.11555161 107.24092743 462.00055817 108.39233398 461.88208008 C110.2573909 461.69290512 110.2573909 461.69290512 112.16012573 461.49990845 C118.23529139 460.7089902 124.25694545 459.726599 130.28515625 458.63671875 C131.62309349 458.40117648 132.96119233 458.1665506 134.29943848 457.93276978 C137.11050968 457.44127473 139.92106985 456.94701571 142.73123169 456.4503479 C167.73625736 452.03848666 192.67297205 448.06287035 218 446 C217.61835693 445.25919189 217.23671387 444.51838379 216.84350586 443.75512695 C213.41181203 437.00782309 210.34383978 430.22452508 207.5625 423.1875 C204.29046208 415.06779631 200.86868249 407.09542993 197.06201172 399.20947266 C195.79126814 396.56574177 194.53863082 393.91368023 193.28515625 391.26171875 C182.11465728 367.70617827 170.01884959 344.59062789 157 322 C146.46797007 322.47872863 138.20317534 328.60989978 130.375 335.125 C120.71976214 343.10402346 113.60745888 345.60268725 101 345 C96.63304663 344.53605258 92.31610118 343.85437416 87.984375 343.13671875 C86.77090393 342.94406937 85.55743286 342.75141998 84.30718994 342.55293274 C80.45333655 341.93984217 76.60161246 341.31450105 72.75 340.6875 C47.86110919 336.67249543 23.20972735 332.87691071 -2 331.8125 C-3.76957109 331.73067482 -5.5391028 331.64799342 -7.30859375 331.56445312 C-11.53869614 331.36499452 -15.7690146 331.18274073 -20 331 C-20 324.4 -20 317.8 -20 311 C-19.01 311 -18.02 311 -17 311 C-16.74347656 310.32469238 -16.48695312 309.64938477 -16.22265625 308.95361328 C-14.78040991 305.46952857 -13.12680229 302.1106805 -11.4375 298.7421875 C-11.09024872 298.04627502 -10.74299744 297.35036255 -10.38522339 296.63336182 C-9.259275 294.3793344 -8.1299716 292.12701296 -7 289.875 C-6.42043549 288.71819733 -6.42043549 288.71819733 -5.8291626 287.5380249 C-0.45583456 276.81673971 4.96491908 266.12776255 10.63476562 255.55957031 C12.27621421 252.48214775 13.89516214 249.39321049 15.515625 246.3046875 C22.39989758 233.2246917 29.49595852 220.38343911 37.65185547 208.04052734 C38.93818671 206.09355949 40.20717188 204.13634068 41.47265625 202.17578125 C52.35687785 185.43966134 64.64972037 169.6678491 77 154 C77.44166504 153.43829102 77.88333008 152.87658203 78.33837891 152.29785156 C84.81980308 144.06490277 84.81980308 144.06490277 88 141 C86.58117661 137.19100823 84.82055659 133.78790679 82.76953125 130.28125 C82.13080078 129.18296875 81.49207031 128.0846875 80.83398438 126.953125 C80.16043746 125.80191876 79.48660858 124.65087744 78.8125 123.5 C74.80174674 116.63582527 70.81651785 109.76199514 67.01171875 102.78125 C66.43252686 101.71970703 65.85333496 100.65816406 65.2565918 99.56445312 C64 97 64 97 64 95 C61.54036348 96.43530688 59.08202352 97.87272914 56.625 99.3125 C55.86928711 99.75529297 55.11357422 100.19808594 54.33496094 100.65429688 C47.82548434 104.48340076 41.38343918 108.41693378 34.97900391 112.41918945 C23.75954697 119.36098965 15.79294946 118.47568901 3.125 115.625 C1.08624289 115.17829144 -0.95281892 114.73297115 -2.9921875 114.2890625 C-3.88276855 114.09006348 -4.77334961 113.89106445 -5.69091797 113.68603516 C-10.44426106 112.70057742 -15.22148761 111.85376371 -20 111 C-23.57608433 37.87177042 -23.57608433 37.87177042 -4.90112305 10.02026367 C-2.55813862 6.47250227 -2.55813862 6.47250227 0 0 Z M128 54 C123.08579806 59.95744035 118.46275438 66.07801803 114.0078125 72.38305664 C110.61965255 77.16508803 107.14359865 81.87570934 103.625 86.5625 C103.12516602 87.22910645 102.62533203 87.89571289 102.11035156 88.58251953 C99.4614836 92.10152541 96.75940217 95.56636308 94 99 C96.06032879 102.59446951 98.12341422 106.18733843 100.18896484 109.77880859 C100.88990279 110.99843417 101.5901121 112.21847884 102.28955078 113.43896484 C103.30045003 115.20263073 104.31404159 116.96472597 105.328125 118.7265625 C105.9355957 119.78439941 106.54306641 120.84223633 107.16894531 121.93212891 C108.43966456 124.06117664 109.77810446 126.15067588 111.16699219 128.20458984 C113 131 113 131 114 134 C116.30073124 134.81292504 118.51902369 135.45726694 120.875 136.0625 C140.89411387 141.77147701 157.12647904 153.85620445 172 168 C172.63550781 168.57105469 173.27101563 169.14210938 173.92578125 169.73046875 C180.2568579 175.60824635 185.01327946 182.99334202 190 190 C193.74230149 189.53035847 197.35368618 188.94861956 201.01171875 188.02734375 C224.02892512 182.48876576 250.10279557 182.76733244 273.03369141 188.54248047 C276.00205795 189.23315826 278.97741873 189.62068003 282 190 C282.54527344 189.24976563 283.09054687 188.49953125 283.65234375 187.7265625 C288.75895565 180.79553712 294.08225538 174.26897766 300 168 C300.95132813 166.96939453 300.95132813 166.96939453 301.921875 165.91796875 C315.34491435 151.85705769 336.22001564 138.2083585 355.66015625 135.2265625 C358.86711554 133.54545195 359.53002551 131.47509645 360.97924805 128.2421875 C362.65578023 124.55951072 364.7972301 121.15457398 366.875 117.6875 C370.73111245 111.19820548 374.45765407 104.66709824 378 98 C377.46632813 97.44054687 376.93265625 96.88109375 376.3828125 96.3046875 C370.3924095 89.85826766 365.30193481 83.06305733 360.28808594 75.84960938 C358.10782258 72.71889005 355.89853669 69.60902315 353.6875 66.5 C353.29119385 65.93700195 352.8948877 65.37400391 352.48657227 64.79394531 C349.81986497 61.0366942 346.98299277 57.50567646 344 54 C336.2264953 57.59080674 329.55623948 61.50467927 323 67 C315.24534336 73.46221387 309.39576954 77.57692638 299 77 C295.81640625 76.08203125 295.81640625 76.08203125 292.5625 74.8125 C256.49981893 61.31289616 218.58714943 57.66673716 182.5625 73.75 C175.37919061 76.87102408 168.64493246 78.22707068 161.0625 75.6875 C156.30739226 73.51995089 152.59913711 70.3679575 148.69189453 66.93652344 C142.67484722 61.69842571 135.602026 56.53400867 128 54 Z M100.33569336 165.17553711 C99.83303955 165.83948486 99.33038574 166.50343262 98.8125 167.1875 C98.26279541 167.8894751 97.71309082 168.5914502 97.14672852 169.31469727 C95.41666639 171.53231564 93.70842044 173.76568657 92 176 C90.8996618 177.41241298 89.79811726 178.82388706 88.6953125 180.234375 C76.99343421 195.27864712 66.13992653 210.86398108 56 227 C55.62842773 227.58861816 55.25685547 228.17723633 54.87402344 228.78369141 C44.12915523 245.91169822 34.87196276 264.00541255 25.92480469 282.12060547 C22.43426874 289.18118547 18.79977889 296.15730558 15.08300781 303.10131836 C14.69209961 303.83487549 14.30119141 304.56843262 13.8984375 305.32421875 C13.38289307 306.2846106 13.38289307 306.2846106 12.85693359 307.2644043 C11.86868345 309.16653335 11.86868345 309.16653335 11 312 C11.84965332 312.08451416 12.69930664 312.16902832 13.57470703 312.25610352 C35.82005426 314.50777031 57.88748122 317.51513642 79.97564697 320.98123169 C84.31601408 321.66125098 88.65760315 322.33307545 93 323 C93.76959045 323.11924835 94.53918091 323.2384967 95.33209229 323.36135864 C97.42707579 323.6821028 99.52347631 323.98999782 101.62109375 324.29296875 C102.77407959 324.4633667 103.92706543 324.63376465 105.11499023 324.80932617 C108.38815545 325.02565367 110.63010021 324.52530916 113.30078125 322.52734375 C114.14189453 321.77130859 114.14189453 321.77130859 115 321 C127.9898212 309.69199552 141.77978681 301.3978169 159.4296875 301.69140625 C166.46112781 302.29915656 170.00532979 305.63920373 174.41870117 310.87426758 C177.34909279 314.81357896 179.43879081 319.18082272 181.625 323.5625 C182.67645259 325.62598602 183.72988917 327.68846211 184.78515625 329.75 C185.3177002 330.79285156 185.85024414 331.83570313 186.39892578 332.91015625 C188.86797368 337.67506479 191.46608173 342.36619304 194.0625 347.0625 C207.43844752 371.44616611 219.26609845 396.66983402 229.53515625 422.51953125 C231.18938978 426.44999011 233.05820065 430.20409546 235 434 C235.66 434 236.32 434 237 434 C238.44048755 430.85552686 239.87720769 427.70934781 241.3125 424.5625 C241.76544434 423.56968018 242.21838867 422.57686035 242.68505859 421.55395508 C245.014332 416.4305945 247.31711957 411.29864383 249.55078125 406.1328125 C254.84139501 393.89814153 260.39244733 381.81484331 266.1875 369.8125 C266.51743958 369.12529877 266.84737915 368.43809753 267.18731689 367.73007202 C271.23435193 359.31525114 275.52275715 351.12567724 280.24389648 343.06811523 C281.90084085 340.17324245 283.41303714 337.24714773 284.875 334.25 C298.02728696 307.69524671 298.02728696 307.69524671 306 303 C315.15959058 299.94680314 325.18041867 301.62466795 333.8125 305.390625 C342.91755548 309.98778537 350.88719136 315.38675821 358.46484375 322.21484375 C363.2403655 325.57757632 367.89466764 325.07733756 373.3921814 324.17376709 C374.19990997 324.03134583 375.00763855 323.88892456 375.83984375 323.7421875 C376.70284088 323.59879944 377.56583801 323.45541138 378.45498657 323.30767822 C380.31479225 322.99848032 382.17394918 322.68535958 384.03250122 322.36871338 C388.9734612 321.5289822 393.91996511 320.72377152 398.8671875 319.921875 C399.87590408 319.75821442 400.88462067 319.59455383 401.92390442 319.42593384 C412.11135849 317.79096373 422.32639764 316.41562219 432.5625 315.125 C433.77508987 314.97076569 433.77508987 314.97076569 435.01217651 314.81341553 C443.66105483 313.71715213 452.30814601 312.69818841 461 312 C454.89255432 298.78262386 448.3531263 285.84132463 441.55712891 272.96582031 C439.99601733 269.99241432 438.45411098 267.00981125 436.91796875 264.0234375 C418.90126113 229.04474314 396.71031082 197.70546963 372.43481445 166.83300781 C371.21642627 165.27648944 370.01809294 163.70430576 368.82421875 162.12890625 C365.63317985 158.40488869 361.80916357 156.31387302 356.90234375 155.765625 C338.38479399 156.70662571 320.18432059 175.10521182 308.25 188 C300.05098827 197.24591306 300.05098827 197.24591306 294.3125 208.0625 C293 211 293 211 290.9375 212.5625 C283.12370263 213.72625706 274.90119576 210.1780025 267.50488281 207.85327148 C242.35529779 200.11974433 215.55837865 202.78573855 191.296875 212.14453125 C187.45770258 213.14071461 184.8439328 212.88992868 181 212 C178.52319439 210.12566062 177.27840037 208.80854575 176.265625 205.8671875 C174.4483539 201.75028321 171.80418002 198.42405317 169.0625 194.875 C168.48129395 194.12162354 167.90008789 193.36824707 167.30126953 192.59204102 C159.3849551 182.49091021 150.69023638 174.16731757 140 167 C138.63875 166.05640625 138.63875 166.05640625 137.25 165.09375 C124.24106573 156.37185089 111.36723611 151.296564 100.33569336 165.17553711 Z " fill="#000000" transform="translate(20,0)"/>
<path d="M0 0 C2.72859109 2.42541431 3.80603908 4.80918426 5.16015625 8.16015625 C6.53503631 10.48119032 7.74219065 11.08544381 10.25 12 C13.17565656 11.78057576 14.75830592 11.42145207 17 9.5 C20.50504193 7.16330538 24.07760885 6.75371302 28.25 7 C32.17237098 8.96118549 35.09693104 11.14713976 37.25 15 C38.43392536 18.80547438 38.35408663 20.67617492 37.125 24.5 C33.04774668 32.11087286 28.56123688 36.33541519 20.25 39 C11.94783936 40.21007411 4.91298716 38.66863398 -2.875 35.77734375 C-7.49232706 34.52890885 -10.8830527 36.01462656 -15.25 37.5625 C-23.27861694 39.96391667 -31.4394921 40.46779533 -39.1875 36.9375 C-45.00479797 33.57008849 -49.21687861 29.48764227 -51.3125 23 C-52.14041435 18.64077748 -51.02311772 15.81297166 -48.75 12 C-45.45693806 8.42467561 -42.46983185 7.28352571 -37.74609375 6.890625 C-33.57107011 7.11939342 -30.62418491 9.12581509 -27.75 12 C-22.71494948 11.76135558 -22.71494948 11.76135558 -18.75 9 C-18.316875 7.865625 -17.88375 6.73125 -17.4375 5.5625 C-13.93015919 -1.84188614 -7.21378529 -2.62319465 0 0 Z " fill="#000000" transform="translate(262.75,113)"/>
<path d="M0 0 C1.54478997 0.81421671 3.07882827 1.64915169 4.6015625 2.50390625 C6.14930001 3.33917285 7.69872265 4.1713262 9.25 5 C10.25426025 5.55772095 10.25426025 5.55772095 11.27880859 6.12670898 C15.62219431 8.22218299 20.46386206 8.93740594 25.2265625 8.06640625 C26.2165625 7.24140625 27.2065625 6.41640625 28.2265625 5.56640625 C31.71729959 2.65745867 31.71729959 2.65745867 35.2890625 2.50390625 C39.58772296 3.1180006 41.23953246 3.98886015 44.2265625 7.06640625 C45.83689698 10.28707521 45.68354694 13.57373945 45.2265625 17.06640625 C42.75087007 22.11681882 39.10192907 25.38281632 34.2265625 28.06640625 C22.32468263 31.55664309 9.05274396 29.68525774 -1.7734375 24.06640625 C-3.11507702 23.26769639 -4.45001856 22.457457 -5.7734375 21.62890625 C-6.7634375 21.11328125 -7.7534375 20.59765625 -8.7734375 20.06640625 C-11.21592211 20.78512353 -11.21592211 20.78512353 -13.7734375 22.06640625 C-14.65902344 22.46859375 -15.54460937 22.87078125 -16.45703125 23.28515625 C-18.29082824 24.13832705 -20.1241632 24.99249164 -21.95703125 25.84765625 C-28.27446188 28.58141264 -33.39222574 29.40556267 -40.2109375 29.37890625 C-41.03142578 29.39501953 -41.85191406 29.41113281 -42.69726562 29.42773438 C-51.13625384 29.4344694 -56.62019993 26.79034817 -62.7734375 21.06640625 C-65.4524948 17.0478203 -65.46954444 13.78998904 -64.7734375 9.06640625 C-62.97950082 6.19610756 -61.79080474 4.57508987 -58.7734375 3.06640625 C-55.839448 2.7730073 -53.62927787 2.56180288 -50.7734375 3.06640625 C-48.7734375 4.73307292 -46.7734375 6.39973958 -44.7734375 8.06640625 C-36.9487661 9.24010696 -30.6171174 6.15094164 -23.8203125 2.46484375 C-22.81484375 1.92085937 -21.809375 1.376875 -20.7734375 0.81640625 C-19.4121875 0.03523437 -19.4121875 0.03523437 -18.0234375 -0.76171875 C-11.75675167 -3.02134105 -6.04831633 -2.82045188 0 0 Z " fill="#000000" transform="translate(265.7734375,232.93359375)"/>
<path d="M0 0 C48.18 0 96.36 0 146 0 C144.96756198 5.16219011 144.0683071 7.04677493 140 10 C124.88870183 19.16891364 106.67117673 21.79191903 89.4375 17.75 C85.71209933 16.68115245 82.32584591 15.24737074 78.8125 13.625 C75.17834393 12.09819002 73.19286966 11.80854439 69.4375 13.0625 C67.95061308 13.69035508 66.47136886 14.33659334 65 15 C63.44426095 15.56078966 61.88162425 16.10283324 60.3125 16.625 C59.62800781 16.86476563 58.94351563 17.10453125 58.23828125 17.3515625 C42.23038312 21.98910367 23.48640968 19.53219005 8.75 12.125 C4.52050906 9.61274598 2.08328991 7.46419267 0 3 C0 2.01 0 1.02 0 0 Z " fill="#000000" transform="translate(183,0)"/>
<path d="M0 0 C0.24888281 4.00088693 0.42936435 7.99873665 0.54931641 12.00561523 C0.59934038 13.36513772 0.66739674 14.72412913 0.75439453 16.08178711 C1.45682992 27.33314924 1.45682992 27.33314924 -2.11010742 31.41430664 C-4.67418662 33.23253216 -7.16010996 34.66011359 -10 36 C-10.8149292 36.41870361 -11.6298584 36.83740723 -12.46948242 37.26879883 C-23.34077784 42.68986355 -35.13359399 43.59306825 -46.8125 40.375 C-53.66273186 38.04510078 -57.98445012 35.15769481 -61.875 29.0625 C-64.55811648 21.7584607 -64.24694541 16.02910161 -61 9 C-58.33349002 5.26007067 -54.95069514 3.71674629 -50.5 2.9375 C-45.91227875 2.65945629 -43.48087405 3.93351572 -40 7 C-37.68107047 9.55881879 -36.60663905 11.60282134 -36 15 C-26.11589568 15.61775652 -20.0910398 11.6703506 -12.65576172 5.58056641 C-8.57190265 2.26452751 -5.34336533 0 0 0 Z " fill="#000000" transform="translate(512,395)"/>
<path d="M0 0 C4.15932322 0.61860428 6.92607646 1.24504671 10.375 3.6875 C11.52548828 4.48994141 11.52548828 4.48994141 12.69921875 5.30859375 C14.89173688 6.92041099 17.04006656 8.57886155 19.1875 10.25 C24.64642397 14.37116394 29.1671535 15.27331386 36 15 C36.391875 13.9275 36.78375 12.855 37.1875 11.75 C39.02903227 7.41801455 41.80117481 5.09941259 46 3 C50.07690834 2.60798958 52.48296309 2.74655053 56.1875 4.5625 C60.4673366 8.27169172 62.34745824 11.87923927 64 17.25 C64 23.36986363 62.2331447 28.9079535 58.62890625 33.8984375 C52.28523204 40.13137425 42.55997166 42.17724167 33.9375 42.4375 C23.1877619 41.99902384 14.01417762 38.82432646 5 33 C3.7011084 32.16891724 3.7011084 32.16891724 2.37597656 31.32104492 C0 29 0 29 -0.56762695 25.88378906 C-0.54144287 24.68979492 -0.51525879 23.49580078 -0.48828125 22.265625 C-0.47216797 20.97011719 -0.45605469 19.67460937 -0.43945312 18.33984375 C-0.39767939 16.97654572 -0.3553547 15.61326448 -0.3125 14.25 C-0.2874091 12.87113376 -0.26459729 11.49222403 -0.24414062 10.11328125 C-0.18518617 6.74108644 -0.10293171 3.37109259 0 0 Z " fill="#000000" transform="translate(0,395)"/>
<path d="M0 0 C2.90100679 1.61786917 5.22334299 3.08213263 7.375 5.625 C13.28073382 10.62215939 24.52738006 9.69866402 31.81933594 9.26025391 C37.53570163 8.57802755 42.75802367 6.28816427 48 4 C55.42046991 0.78815482 61.4036519 1.17098927 68.86181641 4.1015625 C70.81055366 4.91073984 72.7464449 5.74439942 74.6796875 6.58984375 C83.8782487 10.4965268 96.9180331 10.73689138 106.296875 6.99609375 C108.29473424 5.93310716 108.29473424 5.93310716 110.5 3.375 C113.59927954 0.43068443 115.6104164 0.10640254 119.78515625 -0.13671875 C124.1275717 0.13133159 126.94215262 1.83272013 129.8125 5 C132.39176409 9.34402372 132 11.52774325 132 17 C83.16 17 34.32 17 -16 17 C-16 8.5 -16 8.5 -13 4 C-8.70146264 0.28762682 -5.6468782 -0.80669689 0 0 Z " fill="#000000" transform="translate(198,495)"/>
<path d="M0 0 C0 8.58 0 17.16 0 26 C-9.66694006 30.83347003 -18.92954344 33.07695573 -29.65625 30.31640625 C-35.15913296 27.76603165 -38.27320743 23.77788371 -41.4375 18.6875 C-42.31137598 14.51231477 -41.5315571 10.95055851 -40 7 C-37.4001194 3.80014695 -35.90350005 2.30116668 -32 1 C-27.61272682 0.5861063 -25.69675799 0.46985805 -22.125 3.1875 C-19.27469205 5.27586627 -19.27469205 5.27586627 -16.80078125 4.66796875 C-14.47080208 3.88617409 -12.24312677 3.0029565 -10 2 C-5.97430042 0.26162973 -4.6875034 0 0 0 Z " fill="#000000" transform="translate(512,140)"/>
<path d="M0 0 C5.78193571 0.56721521 9.79470147 1.59822975 14.921875 4.35546875 C17.02394012 5.24180376 17.02394012 5.24180376 19.12890625 4.1875 C19.74636719 3.795625 20.36382813 3.40375 21 3 C24.9955981 0.83096103 28.35432474 0.64189082 32.77734375 1.26953125 C36.83795262 2.60403715 38.95127612 5.36024587 41 9 C42.41832151 13.33376016 42.25179739 16.0447447 40.4375 20.125 C37.33466532 25.64590584 33.06966953 29.0617862 27 31 C24.38439451 31.2416134 21.92554926 31.38025267 19.3125 31.375 C18.60859131 31.37556396 17.90468262 31.37612793 17.17944336 31.37670898 C11.32312959 31.25401804 4.35096454 30.35096454 0 26 C-0.08748207 24.07332493 -0.10697334 22.14348139 -0.09765625 20.21484375 C-0.09443359 19.04501953 -0.09121094 17.87519531 -0.08789062 16.66992188 C-0.07951172 15.43822266 -0.07113281 14.20652344 -0.0625 12.9375 C-0.05798828 11.70193359 -0.05347656 10.46636719 -0.04882812 9.19335938 C-0.03699608 6.12885883 -0.02051173 3.06445279 0 0 Z " fill="#000000" transform="translate(0,140)"/>
<path d="M0 0 C3.3194147 2.61315625 5.40238279 5.11390409 7 9 C7.33403245 13.78779839 6.66898085 17.15021351 3.6875 20.9375 C-0.11588535 23.85637713 -2.58156638 25.39678143 -7.4375 24.875 C-11.63456574 24.2813361 -14.0706928 23.19560785 -17 20 C-19.4258218 16.14073805 -19.22142855 12.53144119 -18.609375 8.15234375 C-17.45336667 4.06926305 -14.62408736 1.97311019 -11.109375 -0.1328125 C-7.37876882 -1.66650615 -3.81826434 -1.06365935 0 0 Z " fill="#000000" transform="translate(310,98)"/>
<path d="M0 0 C3.27155407 2.63146741 5.42153589 5.12558809 7 9 C7.23974502 13.46724889 6.53895094 17.09533235 4.25 20.9375 C1.18508623 23.74700429 -0.92472349 24.96975918 -5.14453125 25.03125 C-10.20533892 24.69554137 -13.4498298 23.87291295 -17 20 C-19.04561738 16.29840664 -19.50284817 13.19040144 -19 9 C-17.45557421 4.6626605 -15.7001722 2.4308752 -11.75 0 C-7.44792167 -1.14722089 -4.23164158 -1.46685055 0 0 Z " fill="#000000" transform="translate(214,98)"/>
<path d="M0 0 C3.82661943 3.06129554 5.42657312 4.78899109 6.6875 9.5625 C6.84039122 14.07279093 6.1448613 16.3870266 3.8125 20.25 C0.53834364 23.11910608 -2.4594754 24.14782111 -6.75 24.75 C-10.9437704 24.13999703 -12.98613628 23.01481412 -16.1875 20.25 C-19.31862821 15.90682216 -19.56377412 12.48999274 -18.76171875 7.3671875 C-17.90843512 4.22106691 -16.57603038 2.43948618 -14.1875 0.25 C-9.20787534 -2.50189784 -5.0075725 -2.74925549 0 0 Z " fill="#000000" transform="translate(116.1875,399.75)"/>
<path d="M0 0 C3.27155407 2.63146741 5.42153589 5.12558809 7 9 C7.23974502 13.46724889 6.53895094 17.09533235 4.25 20.9375 C1.17941845 23.75219975 -0.9297145 24.9358928 -5.14453125 25.06640625 C-9.3624952 24.8355724 -11.51833639 24.36893383 -14.9375 21.75 C-17.89866007 17.80178658 -19.02812189 15.54670369 -18.9375 10.5625 C-17.58212585 5.41207823 -15.30520405 2.43296468 -10.6875 -0.4375 C-6.91564213 -1.22695862 -3.69015108 -1.16531087 0 0 Z " fill="#000000" transform="translate(408,399)"/>
<path d="M0 0 C3.15528959 2.72502283 4.47517404 4.40054261 5.75 8.375 C6.03558744 13.27325735 5.50414419 16.41703306 2.4375 20.3125 C-2.91143187 24.41749423 -2.91143187 24.41749423 -8.1875 24.25 C-12.13743872 23.62477693 -14.42546013 22.28261457 -17.25 19.375 C-19.76045016 15.1436052 -20.07585853 11.18833708 -19.25 6.375 C-17.57878951 3.22566709 -15.24991402 1.10827028 -12.375 -1 C-7.72489054 -2.36767925 -4.33345783 -2.16672891 0 0 Z " fill="#000000" transform="translate(463.25,150.625)"/>
<path d="M0 0 C5.52965408 4.42372326 5.52965408 4.42372326 6.12890625 8.29296875 C6.34160513 12.38913752 5.99091068 14.87945474 4.1875 18.625 C1.11877206 22.01675193 -1.47686497 24.07426138 -6.17578125 24.37890625 C-10.13251193 24.13300773 -11.90342715 23.47849338 -15.0625 20.9375 C-18.05367106 17.15454836 -19.58692569 14.69304227 -19.0625 9.8125 C-18.4688361 5.61543426 -17.38310785 3.1793072 -14.1875 0.25 C-9.20787534 -2.50189784 -5.0075725 -2.74925549 0 0 Z " fill="#000000" transform="translate(62.1875,150.75)"/>
<path d="M0 0 C3.0625 1.9375 3.0625 1.9375 5 5 C5.86158776 8.87358466 5.7491951 12.24351389 4.18359375 15.9140625 C2.50187375 18.38683546 0.76126294 19.82241787 -2.16015625 20.50390625 C-6.25711352 20.71593576 -8.47526047 20.32796221 -12 18.125 C-14.5948069 15.36801767 -14.96110169 14.51540257 -15.25 10.6875 C-14.984656 6.77367606 -14.36680088 5.06807521 -12 2 C-7.96514506 -0.68990329 -4.73771348 -0.77993882 0 0 Z " fill="#000000" transform="translate(346,238)"/>
<path d="M0 0 C3.20325006 0.69055572 4.96950326 2.0730895 7.15625 4.46484375 C8.35815901 8.07057079 8.48295315 10.67508725 8.15625 14.46484375 C6.36062595 17.21813396 5.10370078 18.99111836 2.15625 20.46484375 C-2.5477651 21.11176135 -5.83476607 21.10318052 -9.90625 18.52734375 C-12.52858387 14.3823644 -12.85757523 11.24071466 -11.84375 6.46484375 C-9.48453658 0.93367354 -5.6770026 -0.38792851 0 0 Z " fill="#000000" transform="translate(172.84375,237.53515625)"/>
<path d="M0 0 C8.58 0 17.16 0 26 0 C24.80479075 8.36646476 24.80479075 8.36646476 21.65234375 11.765625 C18.44022197 14.16522425 14.96334882 14.90896902 11 15 C6.81223674 13.57774078 3.6179497 11.58756069 1 8 C0.67 5.36 0.34 2.72 0 0 Z " fill="#000000" transform="translate(353,0)"/>
<path d="M0 0 C8.58 0 17.16 0 26 0 C24.81509434 8.29433962 24.81509434 8.29433962 20 13 C16.70763919 15.19490721 14.28778975 15.10203281 10.5 14.5 C5.52181931 13.19737605 3.65139637 11.39137524 1 7 C0.67 4.69 0.34 2.38 0 0 Z " fill="#000000" transform="translate(133,0)"/>
<path d="M0 0 C3.44617432 1.36730803 6.27423678 2.95868756 8.4375 6.0625 C9 8 9 8 9 11 C0.75 11 -7.5 11 -16 11 C-12.4551684 2.72872626 -9.37154427 -1.31530446 0 0 Z " fill="#000000" transform="translate(369,501)"/>
<path d="M0 0 C4.9565861 2.84740053 5.06738093 4.20214278 7 10 C-1.25 10 -9.5 10 -18 10 C-16.91930212 4.59651059 -16.0311625 3.45528214 -12 0 C-7.81219426 -1.39593525 -4.27510924 -0.96171174 0 0 Z " fill="#000000" transform="translate(152,502)"/>
<path d="" fill="#000000" transform="translate(0,0)"/>
<path d="" fill="#000000" transform="translate(0,0)"/>
</svg>
